<?xml version="1.0" standalone="no"?>
<!DOCTYPE svg PUBLIC "-//W3C//DTD SVG 20010904//EN"
 "http://www.w3.org/TR/2001/REC-SVG-20010904/DTD/svg10.dtd">
<svg version="1.0" xmlns="http://www.w3.org/2000/svg"
 width="432.000000pt" height="432.000000pt" viewBox="0 0 432.000000 432.000000"
 preserveAspectRatio="xMidYMid meet">
<metadata>
Created by potrace 1.14, written by Peter Selinger 2001-2017
</metadata>
<g transform="translate(0.000000,432.000000) scale(0.100000,-0.100000)"
fill="#000000" stroke="none">
<path d="M2793 4308 c-5 -7 -29 -51 -53 -98 -51 -102 -188 -368 -275 -535 -34
-66 -99 -191 -144 -277 -196 -381 -248 -481 -311 -603 -123 -237 -216 -418
-310 -600 -103 -201 -211 -410 -305 -590 -34 -66 -99 -191 -144 -277 l-82
-158 38 -1 c21 0 47 -2 58 -4 11 -2 58 -7 105 -10 47 -3 92 -8 100 -10 8 -2
49 -7 90 -10 108 -9 156 -13 230 -19 36 -3 81 -8 100 -10 19 -3 67 -8 105 -11
39 -4 72 -8 74 -10 2 -2 -11 -30 -29 -62 -18 -32 -43 -76 -55 -98 -112 -202
-155 -279 -164 -295 -5 -8 -62 -109 -127 -225 -64 -116 -126 -226 -137 -245
-11 -19 -36 -64 -55 -100 l-35 -65 44 40 c23 22 55 51 69 65 23 21 91 84 231
212 187 171 243 223 301 276 37 35 76 71 86 80 24 21 204 187 291 268 37 34
88 81 115 105 26 24 63 58 81 74 36 34 107 99 246 226 52 48 125 116 163 151
l69 65 -109 17 c-143 24 -127 21 -304 51 -85 15 -166 28 -180 30 -90 14 -324
56 -327 59 -2 1 101 129 228 282 127 153 299 362 382 463 84 101 168 203 187
226 81 95 105 129 104 144 -2 18 -13 68 -44 201 -12 52 -28 122 -35 155 -8 33
-25 110 -40 170 -14 61 -34 148 -45 195 -11 47 -31 135 -45 195 -15 61 -28
120 -31 133 -5 27 -36 158 -70 302 -14 58 -26 113 -27 123 -2 20 -2 20 -14 5z"/>
<path d="M1160 2554 l0 -1219 30 53 c16 29 111 216 211 415 100 199 240 477
311 617 71 140 126 260 123 268 -2 7 -40 69 -82 138 -43 68 -85 135 -93 149
-8 13 -124 199 -257 412 l-243 387 0 -1220z"/>
</g>
</svg>
